<?xml version="1.0" encoding="UTF-8" standalone="no"?>
<!-- Generator: Adobe Illustrator 16.0.4, SVG Export Plug-In . SVG Version: 6.00 Build 0)  -->

<svg
   xmlns:dc="http://purl.org/dc/elements/1.1/"
   xmlns:cc="http://creativecommons.org/ns#"
   xmlns:rdf="http://www.w3.org/1999/02/22-rdf-syntax-ns#"
   xmlns:svg="http://www.w3.org/2000/svg"
   xmlns="http://www.w3.org/2000/svg"
   xmlns:xlink="http://www.w3.org/1999/xlink"
   xmlns:sodipodi="http://sodipodi.sourceforge.net/DTD/sodipodi-0.dtd"
   xmlns:inkscape="http://www.inkscape.org/namespaces/inkscape"
   version="1.1"
   id="Layer_1"
   x="0px"
   y="0px"
   width="45.318024"
   height="45.31604"
   viewBox="0 0 45.318024 45.316041"
   enable-background="new 0 0 61.432 56.828"
   xml:space="preserve"
   inkscape:version="0.48.4 r9939"
   sodipodi:docname="ffrn_logo.svg"><metadata
     id="metadata3208"><rdf:RDF><cc:Work
         rdf:about=""><dc:format>image/svg+xml</dc:format><dc:type
           rdf:resource="http://purl.org/dc/dcmitype/StillImage" /></cc:Work></rdf:RDF></metadata><defs
     id="defs3206" /><sodipodi:namedview
     pagecolor="#ffffff"
     bordercolor="#666666"
     borderopacity="1"
     objecttolerance="10"
     gridtolerance="10"
     guidetolerance="10"
     inkscape:pageopacity="0"
     inkscape:pageshadow="2"
     inkscape:window-width="1918"
     inkscape:window-height="1062"
     id="namedview3204"
     showgrid="false"
     fit-margin-top="0"
     fit-margin-left="0"
     fit-margin-right="0"
     fit-margin-bottom="0"
     inkscape:zoom="15.432533"
     inkscape:cx="22.659011"
     inkscape:cy="22.657046"
     inkscape:window-x="1920"
     inkscape:window-y="16"
     inkscape:window-maximized="0"
     inkscape:current-layer="Layer_1" /><g
     id="Ebene_2"
     display="none"
     style="display:none"
     transform="translate(-8.0569887,-5.7550057)"><g
       display="inline"
       id="g3128"
       style="display:inline"><g
         id="g3130"><path
           d="m 19.807,11.384 v 4.761 h 7.871 v 2.488 h -7.871 v 5.645 H 16.585 V 8.895 h 11.344 v 2.488 l -8.122,0.001 0,0 z"
           id="path3132"
           inkscape:connector-curvature="0"
           style="fill:#bac900" /><path
           d="m 29.996,24.276 v -9.039 c 0,-0.647 -0.009,-1.188 -0.025,-1.621 -0.02,-0.433 -0.038,-0.816 -0.062,-1.151 h 2.926 c 0.022,0.132 0.053,0.529 0.087,1.195 0.036,0.666 0.057,1.107 0.057,1.326 h 0.043 c 0.298,-0.83 0.562,-1.414 0.797,-1.752 0.231,-0.339 0.509,-0.59 0.83,-0.754 0.318,-0.163 0.721,-0.245 1.201,-0.245 0.393,0 0.709,0.055 0.948,0.164 v 2.564 c -0.493,-0.108 -0.932,-0.164 -1.31,-0.164 -0.764,0 -1.359,0.311 -1.785,0.929 -0.426,0.619 -0.639,1.536 -0.639,2.751 v 5.797 h -3.068 z"
           id="path3134"
           inkscape:connector-curvature="0"
           style="fill:#bac900" /><path
           d="m 43.197,24.495 c -1.776,0 -3.14,-0.525 -4.094,-1.578 -0.953,-1.052 -1.432,-2.585 -1.432,-4.602 0,-1.95 0.484,-3.449 1.452,-4.497 0.968,-1.048 2.34,-1.572 4.116,-1.572 1.696,0 2.991,0.562 3.886,1.688 0.896,1.125 1.345,2.771 1.345,4.939 v 0.087 h -7.576 c 0,1.15 0.213,2.019 0.639,2.604 0.426,0.585 1.032,0.879 1.817,0.879 1.084,0 1.769,-0.47 2.053,-1.408 l 2.893,0.251 c -0.838,2.139 -2.537,3.209 -5.099,3.209 z m 0,-10.316 c -0.72,0 -1.275,0.251 -1.665,0.753 -0.39,0.502 -0.595,1.205 -0.617,2.106 H 45.5 c -0.059,-0.954 -0.288,-1.669 -0.688,-2.146 -0.4,-0.476 -0.938,-0.713 -1.615,-0.713 z"
           id="path3136"
           inkscape:connector-curvature="0"
           style="fill:#bac900" /><path
           d="m 50.459,10.336 v -2.26 h 3.067 v 2.26 h -3.067 z m 0,13.94 V 12.465 h 3.067 v 11.812 l -3.067,-0.001 0,0 z"
           id="path3138"
           inkscape:connector-curvature="0"
           style="fill:#bac900" /><path
           d="m 59.96,14.539 v 9.737 h -3.057 v -9.737 h -1.725 v -2.074 h 1.725 v -1.232 c 0,-1.07 0.284,-1.863 0.852,-2.38 0.567,-0.518 1.432,-0.775 2.587,-0.775 0.575,0 1.225,0.06 1.943,0.175 v 1.977 c -0.298,-0.065 -0.597,-0.1 -0.895,-0.1 -0.524,0 -0.896,0.104 -1.108,0.312 -0.215,0.207 -0.322,0.573 -0.322,1.098 v 0.928 h 2.325 v 2.074 H 59.96 v -0.003 z"
           id="path3140"
           inkscape:connector-curvature="0"
           style="fill:#bac900" /><path
           d="m 66.361,12.465 v 6.626 c 0,2.074 0.699,3.111 2.096,3.111 0.743,0 1.341,-0.318 1.796,-0.955 0.455,-0.637 0.684,-1.454 0.684,-2.451 v -6.331 h 3.066 v 9.171 c 0,1.004 0.029,1.885 0.087,2.642 h -2.926 c -0.087,-1.048 -0.131,-1.83 -0.131,-2.347 h -0.055 c -0.408,0.895 -0.928,1.546 -1.558,1.953 -0.629,0.407 -1.377,0.611 -2.241,0.611 -1.252,0 -2.215,-0.384 -2.884,-1.151 -0.669,-0.769 -1.004,-1.896 -1.004,-3.38 v -7.499 h 3.07 l 0,0 z"
           id="path3142"
           inkscape:connector-curvature="0"
           style="fill:#bac900" /><path
           d="M 84.464,24.276 V 17.65 c 0,-2.074 -0.701,-3.111 -2.105,-3.111 -0.743,0 -1.341,0.318 -1.796,0.955 -0.455,0.637 -0.685,1.453 -0.685,2.45 v 6.332 h -3.065 v -9.17 c 0,-0.633 -0.011,-1.151 -0.027,-1.557 -0.018,-0.404 -0.038,-0.766 -0.06,-1.086 h 2.926 c 0.021,0.139 0.051,0.509 0.087,1.107 0.036,0.601 0.055,1.014 0.055,1.239 h 0.043 c 0.415,-0.902 0.937,-1.559 1.562,-1.965 0.626,-0.407 1.372,-0.611 2.236,-0.611 1.254,0 2.214,0.386 2.884,1.157 0.669,0.771 1.004,1.898 1.004,3.384 v 7.5 l -3.059,0.002 0,0 z"
           id="path3144"
           inkscape:connector-curvature="0"
           style="fill:#bac900" /><path
           d="m 97.699,24.276 -3.155,-5.35 -1.319,0.917 v 4.433 h -3.067 v -16.2 h 3.067 v 9.279 l 4.214,-4.892 h 3.297 l -4.148,4.606 4.465,7.205 -3.354,0.002 0,0 z"
           id="path3146"
           inkscape:connector-curvature="0"
           style="fill:#bac900" /><path
           d="m 120.859,24.276 v -9.323 c 0,-0.211 0.001,-0.422 0.005,-0.633 0.004,-0.211 0.038,-1.117 0.104,-2.718 -0.517,1.957 -0.897,3.321 -1.146,4.094 l -2.773,8.58 h -2.292 l -2.771,-8.58 -1.168,-4.094 c 0.087,1.688 0.131,2.805 0.131,3.351 v 9.323 h -2.86 V 8.895 h 4.312 l 2.751,8.603 0.24,0.83 0.522,2.062 0.688,-2.468 2.827,-9.027 h 4.291 v 15.382 l -2.861,-0.001 0,0 z"
           id="path3148"
           inkscape:connector-curvature="0"
           style="fill:#bac900" /><path
           d="m 129.17,24.495 c -1.143,0 -2.032,-0.312 -2.674,-0.934 -0.641,-0.622 -0.961,-1.497 -0.961,-2.626 0,-1.224 0.398,-2.154 1.196,-2.794 0.797,-0.642 1.952,-0.969 3.466,-0.982 l 2.543,-0.044 v -0.601 c 0,-0.771 -0.135,-1.346 -0.404,-1.721 -0.27,-0.374 -0.709,-0.562 -1.319,-0.562 -0.568,0 -0.984,0.129 -1.25,0.387 -0.268,0.259 -0.433,0.688 -0.497,1.283 l -3.199,-0.153 c 0.196,-1.148 0.722,-2.021 1.578,-2.613 0.854,-0.594 2.021,-0.891 3.499,-0.891 1.492,0 2.642,0.368 3.45,1.104 0.808,0.734 1.212,1.778 1.212,3.133 v 4.302 c 0,0.662 0.072,1.119 0.224,1.37 0.149,0.251 0.398,0.376 0.748,0.376 0.233,0 0.458,-0.021 0.677,-0.065 v 1.659 c -0.182,0.044 -0.346,0.084 -0.491,0.12 -0.146,0.037 -0.292,0.066 -0.437,0.088 -0.146,0.022 -0.3,0.04 -0.464,0.056 -0.164,0.015 -0.355,0.021 -0.573,0.021 -0.771,0 -1.341,-0.188 -1.708,-0.567 -0.367,-0.379 -0.587,-0.936 -0.66,-1.67 h -0.063 c -0.865,1.549 -2.161,2.324 -3.893,2.324 z m 3.57,-5.688 -1.572,0.021 c -0.713,0.029 -1.219,0.107 -1.518,0.234 -0.298,0.128 -0.526,0.322 -0.684,0.584 -0.155,0.263 -0.233,0.61 -0.233,1.048 0,0.561 0.129,0.978 0.388,1.25 0.258,0.273 0.604,0.41 1.032,0.41 0.479,0 0.918,-0.132 1.313,-0.395 0.396,-0.262 0.708,-0.624 0.935,-1.086 0.225,-0.462 0.338,-0.951 0.338,-1.469 l 0.001,-0.597 0,0 z"
           id="path3150"
           inkscape:connector-curvature="0"
           style="fill:#bac900" /><path
           d="m 138.54,10.336 v -2.26 h 3.067 v 2.26 h -3.067 z m 0,13.94 V 12.465 h 3.067 v 11.812 l -3.067,-0.001 0,0 z"
           id="path3152"
           inkscape:connector-curvature="0"
           style="fill:#bac900" /><path
           d="M 152.091,24.276 V 17.65 c 0,-2.074 -0.701,-3.111 -2.105,-3.111 -0.743,0 -1.341,0.318 -1.796,0.955 -0.455,0.637 -0.685,1.453 -0.685,2.45 v 6.332 h -3.065 v -9.17 c 0,-0.633 -0.009,-1.151 -0.027,-1.557 -0.018,-0.404 -0.038,-0.766 -0.06,-1.086 h 2.926 c 0.021,0.139 0.051,0.509 0.087,1.107 0.036,0.601 0.055,1.014 0.055,1.239 h 0.043 c 0.415,-0.902 0.937,-1.559 1.562,-1.965 0.626,-0.407 1.372,-0.611 2.238,-0.611 1.252,0 2.212,0.386 2.882,1.157 0.669,0.771 1.004,1.898 1.004,3.384 v 7.5 l -3.059,0.002 0,0 z"
           id="path3154"
           inkscape:connector-curvature="0"
           style="fill:#bac900" /><path
           d="m 157.116,24.276 v -2.173 l 5.557,-7.423 h -5.107 v -2.217 h 8.493 v 2.194 l -5.524,7.379 h 6.059 v 2.238 l -9.478,0.002 0,0 z"
           id="path3156"
           inkscape:connector-curvature="0"
           style="fill:#bac900" /></g><g
         id="g3158"><path
           d="m 19.807,32.803 v 4.76 h 7.871 v 2.489 h -7.871 v 5.644 H 16.585 V 30.313 h 11.344 v 2.489 l -8.122,10e-4 0,0 z"
           id="path3160"
           inkscape:connector-curvature="0"
           style="fill:#bac900" /><path
           d="m 29.996,45.695 v -9.039 c 0,-0.646 -0.009,-1.188 -0.025,-1.621 -0.02,-0.433 -0.038,-0.814 -0.062,-1.15 h 2.926 c 0.022,0.132 0.053,0.529 0.087,1.195 0.036,0.666 0.057,1.106 0.057,1.325 h 0.043 c 0.298,-0.829 0.562,-1.414 0.797,-1.752 0.231,-0.339 0.509,-0.59 0.83,-0.754 0.318,-0.163 0.721,-0.245 1.201,-0.245 0.393,0 0.709,0.055 0.948,0.164 v 2.564 c -0.493,-0.108 -0.932,-0.163 -1.31,-0.163 -0.764,0 -1.359,0.31 -1.785,0.928 -0.426,0.619 -0.639,1.536 -0.639,2.751 v 5.797 h -3.068 z"
           id="path3162"
           inkscape:connector-curvature="0"
           style="fill:#bac900" /><path
           d="m 43.197,45.914 c -1.776,0 -3.14,-0.524 -4.094,-1.578 -0.953,-1.051 -1.432,-2.584 -1.432,-4.602 0,-1.949 0.484,-3.449 1.452,-4.497 0.968,-1.048 2.34,-1.571 4.116,-1.571 1.696,0 2.991,0.562 3.886,1.688 0.896,1.125 1.345,2.771 1.345,4.939 v 0.086 h -7.576 c 0,1.15 0.213,2.02 0.639,2.604 0.426,0.584 1.032,0.879 1.817,0.879 1.084,0 1.769,-0.47 2.053,-1.407 l 2.893,0.25 c -0.838,2.139 -2.537,3.209 -5.099,3.209 z m 0,-10.316 c -0.72,0 -1.275,0.251 -1.665,0.753 -0.39,0.502 -0.595,1.205 -0.617,2.105 H 45.5 c -0.059,-0.953 -0.288,-1.668 -0.688,-2.146 -0.4,-0.475 -0.938,-0.712 -1.615,-0.712 z"
           id="path3164"
           inkscape:connector-curvature="0"
           style="fill:#bac900" /><path
           d="m 55.295,45.914 c -1.774,0 -3.14,-0.524 -4.094,-1.578 -0.953,-1.051 -1.43,-2.584 -1.43,-4.602 0,-1.949 0.482,-3.449 1.452,-4.497 0.968,-1.048 2.34,-1.571 4.114,-1.571 1.696,0 2.991,0.562 3.888,1.688 0.895,1.125 1.343,2.771 1.343,4.939 v 0.086 h -7.576 c 0,1.15 0.213,2.02 0.639,2.604 0.428,0.586 1.032,0.879 1.817,0.879 1.084,0 1.769,-0.47 2.053,-1.407 l 2.895,0.25 c -0.839,2.139 -2.539,3.209 -5.101,3.209 z m 0,-10.316 c -0.72,0 -1.273,0.251 -1.665,0.753 -0.39,0.502 -0.595,1.205 -0.615,2.105 H 57.6 C 57.539,37.503 57.312,36.788 56.912,36.31 56.51,35.835 55.973,35.598 55.295,35.598 z"
           id="path3166"
           inkscape:connector-curvature="0"
           style="fill:#bac900" /><path
           d="m 84.002,45.695 h -3.819 l -2.085,-8.896 c -0.257,-1.049 -0.472,-2.144 -0.646,-3.284 -0.175,0.952 -0.317,1.679 -0.426,2.178 -0.109,0.498 -0.884,3.833 -2.326,10.005 H 70.88 L 66.918,30.316 h 3.266 l 2.227,9.935 0.502,2.401 c 0.204,-1.012 0.402,-1.979 0.595,-2.897 0.193,-0.92 0.919,-4.065 2.18,-9.438 h 3.603 l 1.943,8.188 c 0.151,0.61 0.411,1.994 0.773,4.147 l 0.272,-1.269 0.579,-2.51 1.854,-8.56 h 3.266 l -3.976,15.382 z"
           id="path3168"
           inkscape:connector-curvature="0"
           style="fill:#bac900" /><path
           d="m 89.044,31.755 v -2.26 h 3.067 v 2.26 h -3.067 z m 0,13.94 V 33.884 h 3.067 v 11.812 l -3.067,-10e-4 0,0 z"
           id="path3170"
           inkscape:connector-curvature="0"
           style="fill:#bac900" /><path
           d="m 98.098,32.803 v 4.76 h 7.871 v 2.489 h -7.871 v 5.644 H 94.876 V 30.313 h 11.344 v 2.489 l -8.122,10e-4 0,0 z"
           id="path3172"
           inkscape:connector-curvature="0"
           style="fill:#bac900" /><path
           d="m 108.287,31.755 v -2.26 h 3.067 v 2.26 h -3.067 z m 0,13.94 V 33.884 h 3.067 v 11.812 l -3.067,-10e-4 0,0 z"
           id="path3174"
           inkscape:connector-curvature="0"
           style="fill:#bac900" /></g><g
         id="g3176"><g
           id="g3178"><g
             id="g3180"><defs
               id="defs3182"><rect
                 id="SVGID_1_"
                 x="3.316"
                 width="194.086"
                 height="99.550003"
                 y="0" /></defs><clipPath
               id="SVGID_2_"><use
                 xlink:href="#SVGID_1_"
                 overflow="visible"
                 id="use3186"
                 style="overflow:visible"
                 x="0"
                 y="0"
                 width="61.431999"
                 height="56.827999" /></clipPath><path
               clip-path="url(#SVGID_2_)"
               d="M 60.122,76.61 C 60,89.399 49.536,99.669 36.747,99.548 23.958,99.432 13.687,88.964 13.809,76.175 13.928,63.388 24.395,53.114 37.184,53.237 49.97,53.355 60.24,63.82 60.122,76.61"
               id="path3188"
               inkscape:connector-curvature="0"
               style="fill:#ff656c" /></g></g></g><path
         stroke-miterlimit="10"
         d="m 44.096,83.446 -7.134,-7.19 7.098,-7.229 7.132,7.192 -7.096,7.227 z m -14.275,0.037 -7.132,-7.192 7.096,-7.229 7.131,7.189 -7.095,7.232 z"
         id="path3190"
         inkscape:connector-curvature="0"
         style="fill:none;stroke:#ffffff;stroke-width:2.07399988;stroke-linecap:round;stroke-linejoin:round;stroke-miterlimit:10" /></g></g><g
     id="g3192"
     transform="translate(-8.0569887,-5.7550057)"><g
       id="g3194"><g
         id="g3196"><path
           d="M 53.374,28.627 C 53.255,41.142 43.017,51.189 30.503,51.07 17.99,50.954 7.941,40.715 8.058,28.202 8.175,15.689 18.414,5.64 30.929,5.756 43.442,5.875 53.491,16.114 53.374,28.627"
           id="path3198"
           inkscape:connector-curvature="0"
           style="fill:#bac900" /></g></g></g><g
     id="g3200"
     transform="translate(-8.0569887,-5.7550057)"><path
       d="m 23.728,36.368 c -0.271,0 -0.529,-0.109 -0.722,-0.301 L 16.028,29.03 c -0.392,-0.395 -0.395,-1.029 -0.003,-1.426 l 6.941,-7.072 c 0.19,-0.193 0.45,-0.303 0.724,-0.305 0.235,-0.006 0.531,0.109 0.723,0.301 l 6.276,6.33 6.243,-6.361 c 0.189,-0.193 0.449,-0.303 0.723,-0.305 h 0.002 c 0.271,0 0.531,0.109 0.721,0.301 l 6.98,7.035 c 0.391,0.395 0.393,1.029 0.004,1.426 l -6.943,7.072 c -0.188,0.195 -0.449,0.305 -0.721,0.305 h -0.002 c -0.271,0 -0.531,-0.106 -0.723,-0.301 l -6.276,-6.328 -6.244,6.361 c -0.189,0.193 -0.45,0.303 -0.722,0.305 0,0 -0.001,0 -0.003,0 z m -5.552,-8.057 5.549,5.596 5.521,-5.623 -5.547,-5.596 -5.523,5.623 z m 13.965,-0.035 5.549,5.594 5.52,-5.623 -5.549,-5.596 -5.52,5.625 z"
       id="path3202"
       inkscape:connector-curvature="0"
       style="fill:#ffffff" /></g></svg>